<?xml version="1.0" encoding="UTF-8" standalone="no"?>
<svg
   version="1.1"
   x="0px"
   y="0px"
   viewBox="0 0 24 24"
   enable-background="new 0 0 100 100"
   xml:space="preserve"
   id="svg287"
   sodipodi:docname="icon.svg"
   inkscape:version="1.1.2 (0a00cf5339, 2022-02-04)"
   width="24"
   height="24"
   xmlns:inkscape="http://www.inkscape.org/namespaces/inkscape"
   xmlns:sodipodi="http://sodipodi.sourceforge.net/DTD/sodipodi-0.dtd"
   xmlns="http://www.w3.org/2000/svg"
   xmlns:svg="http://www.w3.org/2000/svg"><defs
     id="defs291" /><sodipodi:namedview
     id="namedview289"
     pagecolor="#ffffff"
     bordercolor="#666666"
     borderopacity="1.0"
     inkscape:pageshadow="2"
     inkscape:pageopacity="0.0"
     inkscape:pagecheckerboard="0"
     showgrid="false"
     inkscape:snap-grids="true"
     inkscape:zoom="13.92"
     inkscape:cx="4.4899425"
     inkscape:cy="0.96982759"
     inkscape:window-width="1920"
     inkscape:window-height="1044"
     inkscape:window-x="1920"
     inkscape:window-y="1080"
     inkscape:window-maximized="1"
     inkscape:current-layer="svg287" /><g
     id="g1952"
     transform="matrix(0.26666667,0,0,0.26666667,-1.670972,-0.7344379)"><g
       id="g281"
       transform="translate(0.342779,-2.2732787)"><path
         d="M 90.345,16.392 78.829,5 H 50 21.171 L 9.655,16.392 c 0,0 6.794,9.295 6.794,19.4 0,10.105 -4.336,17.35 -2.409,28.313 1.927,10.963 6.46,15.068 18.406,19.638 C 46.901,89.272 50,95 50,95 50,95 53.099,89.272 67.554,83.743 79.501,79.173 84.033,75.068 85.96,64.105 87.887,53.142 83.551,45.897 83.551,35.792 c 0,-10.105 6.794,-19.4 6.794,-19.4 z"
         id="path279" /></g><g
       id="g1735"
       transform="matrix(0.66835303,0,0,0.66835303,-76.670858,-14.882904)"><path
         style="fill:#ff0000;stroke:none;stroke-width:0.287356"
         d="m 167.67241,76.849621 c -0.55738,-0.164046 -2.8544,-2.262296 -6.49911,-5.936728 -4.99581,-5.036539 -5.67797,-5.83695 -5.99673,-7.036286 -0.19782,-0.744303 -0.28442,-1.649475 -0.19246,-2.011494 0.092,-0.362019 3.83021,-4.311234 8.30721,-8.776033 6.99662,-6.977569 8.25944,-8.117591 8.99042,-8.116213 2.15807,0.0041 2.71413,0.414433 8.65469,6.38704 5.33421,5.362994 5.81428,5.929565 6.0648,7.157615 0.19639,0.962683 0.17216,1.562123 -0.0871,2.155173 -0.19754,0.451857 -3.90195,4.345265 -8.23202,8.652018 -7.71345,7.671913 -7.89588,7.829934 -9.01024,7.804543 -0.62556,-0.01425 -1.52532,-0.140089 -1.99946,-0.279635 z"
         id="path966" /><path
         style="fill:#ff0000;stroke-width:0.287356"
         d="m 151.39303,80.675287 c -6.26316,-6.276768 -6.53092,-6.590906 -6.71739,-7.880751 -0.24914,-1.723416 0.22289,-3.156785 1.50802,-4.579274 1.22161,-1.352169 2.33192,-1.688574 5.58011,-1.690671 l 2.48216,-0.0016 5.63928,5.8575 5.63928,5.8575 -0.19207,2.930798 c -0.21353,3.258455 -0.63612,4.216023 -2.37888,5.390468 -0.78164,0.52675 -1.36377,0.65339 -3.00345,0.65339 h -2.03389 z"
         id="path1042" /><path
         style="fill:#ff0000;stroke-width:0.287356"
         d="m 205.33984,105.01104 c -1.27174,-1.1166 -1.52124,-1.86638 -0.86308,-2.59364 0.49177,-0.54339 0.12036,-0.94233 -13.59149,-14.599185 l -14.09706,-14.040527 3.34711,-3.338387 3.3471,-3.338387 14.06643,14.068626 c 12.66141,12.663383 14.11287,14.026594 14.53142,13.647819 0.25574,-0.231444 0.66605,-0.420807 0.91179,-0.420807 0.50158,0 2.52518,2.114695 2.52518,2.638853 0,0.436081 -8.4106,8.855395 -8.84623,8.855395 -0.18104,0 -0.78007,-0.39589 -1.33117,-0.87976 z M 194.36886,83.709697 c 0.34732,-0.993556 -0.17516,-1.669467 -1.29049,-1.669467 -1.14212,0 -1.62192,0.929466 -0.9831,1.904436 0.64132,0.978778 1.89457,0.849258 2.27359,-0.234969 z m -5.16525,-4.419878 c 0.94026,-0.940255 0.3534,-2.134647 -1.04885,-2.134647 -1.13953,0 -1.69364,1.18107 -0.94317,2.010327 0.62589,0.691607 1.37781,0.738533 1.99202,0.12432 z m -4.88506,-4.885057 c 0.94026,-0.940255 0.3534,-2.134647 -1.04885,-2.134647 -1.13952,0 -1.69364,1.181069 -0.94317,2.010327 0.6259,0.691607 1.37781,0.738533 1.99202,0.12432 z"
         id="path1081" /><path
         style="fill:#ff0000;stroke-width:0.287356"
         d="m 214.79704,110.19933 -4.59047,-4.5972 2.51213,-2.51213 2.51213,-2.51213 4.59968,4.59968 4.59967,4.59967 -2.52134,2.50966 -2.52133,2.50966 z"
         id="path1120" /><path
         style="fill:#ff0000;stroke-width:0.287356"
         d="m 220.11494,119.68391 c -1.22266,-1.22266 -0.86011,-1.87802 3.38016,-6.11017 4.26606,-4.2579 4.84233,-4.57041 6.05251,-3.28223 1.1958,1.27287 0.91204,1.78582 -3.33007,6.01981 -4.23675,4.22865 -4.88712,4.58807 -6.1026,3.37259 z"
         id="path1159" /><path
         style="fill:#ff0000;stroke-width:0.287356"
         d="m 227.72988,124.56557 c -1.20997,-0.25849 -2.14804,-0.78488 -3.23871,-1.81737 l -0.93987,-0.88974 3.95326,-3.96084 c 2.17429,-2.17846 4.04486,-3.96084 4.15681,-3.96084 0.46205,0 2.50235,3.27241 2.67409,4.28893 0.23836,1.41084 -0.39736,2.96859 -1.80639,4.42635 -1.63364,1.69013 -3.10281,2.27591 -4.79919,1.91351 z"
         id="path1198" /><path
         style="fill:#ff0000;stroke-width:0.287356"
         d="m 182.21157,49.75464 -5.86314,-5.882685 0.19573,-2.784439 c 0.20421,-2.905226 0.5336,-3.883343 1.6613,-4.933317 1.2835,-1.195041 3.55917,-1.596476 5.32468,-0.939293 0.92255,0.343403 12.5574,11.793257 13.18449,12.974847 0.57757,1.088304 0.52978,3.820716 -0.085,4.861517 -0.27326,0.462602 -1.00524,1.19376 -1.62662,1.624797 -1.01791,0.706109 -1.41682,0.792493 -4.02901,0.87248 l -2.89925,0.08878 z"
         id="path1237" /><path
         style="fill:#ff0000;stroke-width:0.287356"
         d="m 157.5345,54.375583 c -1.45637,-1.502589 -1.28625,-2.196159 1.15803,-4.721142 3.13735,-3.240945 3.91778,-3.494082 5.54287,-1.797856 l 0.83085,0.867215 -3.30323,3.303225 -3.30322,3.303226 z"
         id="path1276" /></g><g
       id="g1725"
       transform="matrix(0.67229629,0,0,0.67229629,-48.087615,34.983632)"><path
         style="fill:#0000ff;stroke-width:0.287356"
         d="m 154.50809,11.942274 -3.3942,-1.9617415 -1.98762,-3.51524 -1.98762,-3.5152396 4.07083,-4.4922678 c 2.23896,-2.4707473 4.17545,-4.6146919 4.30331,-4.7643213 0.21376,-0.2501652 12.01595,11.1975345 12.01595,11.6550451 0,0.2625736 -9.15104,8.5926391 -9.41669,8.5718901 -0.11536,-0.009 -1.73714,-0.899167 -3.60396,-1.978125 z"
         id="path1352" /><path
         style="fill:#0000ff;stroke-width:0.287356"
         d="m 176.62722,14.439655 c -0.21864,-0.355603 -1.01335,-1.679428 -1.76602,-2.941833 -2.49041,-4.1769743 -4.49994,-6.543618 -11.4824,-13.5229082 -7.29039,-7.2870782 -9.35356,-9.0219518 -14.24087,-11.9748058 -2.20255,-1.330755 -3.04222,-1.996493 -3.10975,-2.465584 -0.18626,-1.293887 3.03393,-4.851021 5.49286,-6.0676 1.47198,-0.72828 1.92324,-0.501095 3.26984,1.646182 2.03783,3.249528 5.27667,7.979371 6.19543,9.047497 l 0.93898,1.091639 3.16092,-2.907903 c 3.7418,-3.442294 9.08361,-7.829998 12.5321,-10.293748 l 2.47463,-1.767982 -0.0149,-1.50912 c -0.0469,-4.746583 3.77388,-8.68117 8.40786,-8.658398 7.34066,0.03607 11.22035,8.732785 6.3635,14.264426 -1.35766,1.546292 -3.73511,2.613375 -6.00527,2.69538 l -1.85931,0.06716 -2.87032,3.822436 c -3.10415,4.133805 -5.62416,7.1682687 -9.50349,11.443548 -1.36238,1.5014368 -2.47875,2.80779308 -2.48083,2.90301722 -0.007,0.31346264 4.88356,3.80924998 8.43502,6.02959478 2.84581,1.7791811 3.50287,2.3169339 3.57559,2.9263248 0.11576,0.970135 -0.56532,2.2572962 -2.05311,3.8801382 -2.56347,2.796158 -4.61998,3.659563 -5.46048,2.292534 z m 14.12283,-38.441274 c 1.75355,-1.069109 2.29945,-3.725803 1.12641,-5.481748 -2.81789,-4.218111 -8.94264,-0.785774 -6.97996,3.911592 0.8385,2.006813 3.82388,2.807611 5.85355,1.570156 z"
         id="path1391" /><path
         style="fill:#0000ff;stroke-width:0.287356"
         d="m 130.01981,32.937937 c 19.30411,-19.330444 20.71958,-20.683711 21.26437,-20.329885 0.321,0.208481 1.59161,0.930889 2.82357,1.605351 1.23197,0.674461 2.20179,1.333798 2.15518,1.465192 -0.14707,0.414502 -27.17585,25.123974 -34.56753,31.601333 -4.63361,4.060451 -5.61252,4.576796 -11.78161,6.214394 -0.31609,0.08391 8.73162,-9.166466 20.10602,-20.556385 z"
         id="path1541" /><path
         style="fill:#0000ff;stroke-width:0.287356"
         d="m 107.75862,51.235848 c 0,-0.607926 1.29374,-4.733816 2.00377,-6.390236 0.29103,-0.678951 1.3479,-2.189207 2.34861,-3.356126 3.47452,-4.051644 18.05553,-20.111426 32.03553,-35.2845233 l 1.43149,-1.553658 1.67253,2.9539332 1.67254,2.9539331 -20.58224,20.582233 c -11.46791,11.467912 -20.58223,20.366228 -20.58223,20.094444 z"
         id="path1580" /></g></g></svg>
